<svg width="1303" height="271" viewBox="0 0 1303 271" fill="none" xmlns="http://www.w3.org/2000/svg">
<path d="M0.179932 208H48.3079C104.884 208 135.86 172.928 135.86 113.536C135.86 53.888 104.884 20.096 47.2839 20.096H0.179932V208ZM23.9879 188.544V39.552H45.2359C89.5239 39.552 111.284 65.92 111.284 113.536C111.284 160.896 89.5239 188.544 45.2359 188.544H23.9879Z" fill="black"/>
<path d="M165.946 267.904C193.594 267.904 208.186 246.912 217.658 219.52L270.138 68.992H247.354L222.522 146.304C218.682 158.592 214.586 172.672 210.746 185.216H209.466C205.114 172.672 200.25 158.336 196.154 146.304L167.738 68.992H143.418L199.226 208.256L196.154 218.752C190.522 235.904 180.538 248.704 164.666 248.704C161.082 248.704 156.986 247.424 154.17 246.4L149.562 265.088C153.914 266.88 159.29 267.904 165.946 267.904Z" fill="black"/>
<path d="M286.902 208H310.198V107.136C324.278 93.056 334.006 85.888 348.342 85.888C366.774 85.888 374.71 96.896 374.71 123.008V208H398.006V119.936C398.006 84.352 384.694 65.408 355.51 65.408C336.566 65.408 322.23 75.904 308.918 88.96H308.15L306.102 68.992H286.902V208Z" fill="black"/>
<path d="M465.162 211.328C482.314 211.328 497.93 202.368 511.242 191.36H512.01L514.058 208H533.258V122.496C533.258 88.192 518.922 65.408 485.13 65.408C462.858 65.408 443.146 75.392 430.346 83.584L439.562 99.712C450.57 92.288 465.162 84.864 481.29 84.864C504.074 84.864 509.962 102.016 509.962 119.936C450.826 126.592 424.458 141.696 424.458 171.904C424.458 196.992 441.866 211.328 465.162 211.328ZM471.818 192.64C457.994 192.64 447.242 186.24 447.242 170.368C447.242 152.448 463.114 140.928 509.962 135.296V174.208C496.394 186.24 485.386 192.64 471.818 192.64Z" fill="black"/>
<path d="M567.422 208H590.718V107.136C603.518 92.8 615.294 85.888 625.79 85.888C643.454 85.888 651.646 96.896 651.646 123.008V208H674.942V107.136C687.998 92.8 699.262 85.888 710.014 85.888C727.678 85.888 735.87 96.896 735.87 123.008V208H759.166V119.936C759.166 84.352 745.598 65.408 716.926 65.408C700.03 65.408 685.438 76.416 671.102 92.032C665.47 75.648 653.95 65.408 632.702 65.408C616.062 65.408 601.47 75.904 589.438 89.216H588.67L586.622 68.992H567.422V208Z" fill="black"/>
<path d="M794.182 208H817.478V68.992H794.182V208ZM805.958 40.32C815.174 40.32 821.574 34.176 821.574 24.704C821.574 15.744 815.174 9.60004 805.958 9.60004C796.742 9.60004 790.342 15.744 790.342 24.704C790.342 34.176 796.742 40.32 805.958 40.32Z" fill="black"/>
<path d="M892.074 211.584C929.45 211.584 949.162 191.36 949.162 166.272C949.162 139.648 928.17 130.176 909.226 123.008C894.122 117.376 880.81 113.536 880.81 103.04C880.81 94.848 886.954 89.216 900.01 89.216C910.506 89.216 920.49 94.08 930.73 101.504L947.626 78.72C935.85 69.76 919.722 61.056 898.986 61.056C866.218 61.056 845.482 79.232 845.482 104.832C845.482 128.896 865.706 139.904 883.882 146.816C898.986 152.704 913.834 157.568 913.834 168.32C913.834 177.28 907.434 183.424 893.098 183.424C879.786 183.424 867.498 177.792 854.698 167.808L837.546 191.36C851.882 203.136 872.874 211.584 892.074 211.584Z" fill="black"/>
<path d="M967.624 208H1005.26V64.64H967.624V208ZM986.568 41.6C999.368 41.6 1008.33 33.408 1008.33 20.864C1008.33 8.57603 999.368 0.384033 986.568 0.384033C973.512 0.384033 964.552 8.57603 964.552 20.864C964.552 33.408 973.512 41.6 986.568 41.6Z" fill="black"/>
<path d="M1085.57 270.208C1133.44 270.208 1163.65 248.192 1163.65 219.264C1163.65 194.176 1144.7 183.424 1110.14 183.424H1085.82C1068.93 183.424 1063.29 179.328 1063.29 171.648C1063.29 165.76 1065.6 162.688 1069.44 159.36C1075.58 161.408 1082.24 162.688 1087.87 162.688C1118.59 162.688 1143.17 146.304 1143.17 114.048C1143.17 105.088 1140.35 97.152 1136.77 92.288H1161.09V64.64H1109.37C1103.49 62.592 1095.81 61.056 1087.87 61.056C1057.41 61.056 1030.01 79.232 1030.01 112.768C1030.01 129.664 1039.23 143.232 1049.21 150.4V151.424C1040.51 157.568 1033.09 167.552 1033.09 178.304C1033.09 190.08 1038.72 197.504 1046.14 202.368V203.648C1033.09 211.072 1025.66 221.312 1025.66 233.344C1025.66 258.688 1051.77 270.208 1085.57 270.208ZM1087.87 139.392C1075.33 139.392 1065.34 129.92 1065.34 112.768C1065.34 96.128 1075.07 86.656 1087.87 86.656C1100.67 86.656 1110.4 96.128 1110.4 112.768C1110.4 129.92 1100.41 139.392 1087.87 139.392ZM1091.2 246.4C1070.46 246.4 1057.15 239.488 1057.15 227.456C1057.15 221.568 1059.97 215.936 1066.37 210.816C1071.49 212.096 1077.63 212.864 1086.33 212.864H1103.74C1119.1 212.864 1127.55 215.424 1127.55 225.664C1127.55 236.928 1112.7 246.4 1091.2 246.4Z" fill="black"/>
<path d="M1177.64 208H1215.28V109.44C1225.77 98.944 1233.2 93.312 1244.97 93.312C1259.05 93.312 1265.2 100.992 1265.2 123.264V208H1302.83V118.656C1302.83 82.56 1289.52 61.056 1258.54 61.056C1239.08 61.056 1224.49 71.296 1211.95 83.584H1211.18L1208.36 64.64H1177.64V208Z" fill="black"/>
</svg>
