<svg width="255" height="255" viewBox="0 0 255 255" fill="none" xmlns="http://www.w3.org/2000/svg">
<rect width="255" height="255" rx="16" fill="white"/>
<path d="M60 118.625C60 114.208 60.625 110.083 61.875 106.25C63.125 102.417 64.7917 99.0833 66.875 96.25C69.0417 93.3333 71.5833 91.0417 74.5 89.375C77.4167 87.7083 80.5 86.875 83.75 86.875H141.5V19H171.25V196.375H195C194.667 199.292 193.833 202.083 192.5 204.75C191.25 207.333 189.625 209.583 187.625 211.5C185.708 213.417 183.5 214.958 181 216.125C178.5 217.208 175.875 217.75 173.125 217.75H141.5V204.125C139.25 208.375 136.375 211.708 132.875 214.125C129.375 216.542 125.667 217.75 121.75 217.75H83.75C80.5 217.75 77.4167 216.917 74.5 215.25C71.5833 213.583 69.0417 211.333 66.875 208.5C64.7917 205.583 63.125 202.208 61.875 198.375C60.625 194.542 60 190.417 60 186V118.625ZM141.5 196.375V108.25H89.75V196.375H141.5Z" fill="black"/>
</svg>
